<svg xmlns="http://www.w3.org/2000/svg" xmlns:xlink="http://www.w3.org/1999/xlink" viewBox="0 0 194.39 161.59"><defs><style>.cls-1{font-size:32.53px;fill:#0f1127;font-family:Poppins-Black, Poppins;font-weight:800;}.cls-2{fill:#0169c2;font-family:Poppins-Medium, Poppins;font-weight:500;}.cls-3{fill:url(#Degradado_sin_nombre_3);}.cls-4{fill:url(#Degradado_sin_nombre_3-2);}.cls-5{fill:url(#Degradado_sin_nombre_3-3);}.cls-6{fill:url(#Degradado_sin_nombre_3-4);}.cls-7{fill:url(#Degradado_sin_nombre_3-5);}.cls-8{fill:url(#Degradado_sin_nombre_3-6);}.cls-9{fill:url(#Degradado_sin_nombre_3-7);}.cls-10{fill:url(#Degradado_sin_nombre_3-8);}.cls-11{fill:url(#Degradado_sin_nombre_3-9);}.cls-12{fill:url(#Degradado_sin_nombre_3-10);}.cls-13{fill:url(#Degradado_sin_nombre_3-11);}.cls-14{fill:url(#Degradado_sin_nombre_3-12);}.cls-15{fill:url(#Degradado_sin_nombre_3-13);}.cls-16{fill:url(#Degradado_sin_nombre_3-14);}.cls-17{fill:url(#Degradado_sin_nombre_3-15);}.cls-18{fill:url(#Degradado_sin_nombre_3-16);}.cls-19{fill:url(#Degradado_sin_nombre_3-17);}.cls-20{fill:url(#Degradado_sin_nombre_3-18);}.cls-21{fill:url(#Degradado_sin_nombre_3-19);}.cls-22{fill:url(#Degradado_sin_nombre_3-20);}.cls-23{fill:url(#Degradado_sin_nombre_3-21);}.cls-24{fill:url(#Degradado_sin_nombre_3-22);}.cls-25{fill:url(#Degradado_sin_nombre_3-23);}.cls-26{fill:url(#Degradado_sin_nombre_3-24);}</style><linearGradient id="Degradado_sin_nombre_3" x1="96.58" y1="-9.75" x2="96.58" y2="46.93" gradientTransform="translate(9.45 76.56) rotate(-45)" gradientUnits="userSpaceOnUse"><stop offset="0" stop-color="#7ed4ef"/><stop offset="0.23" stop-color="#66bfe6"/><stop offset="0.71" stop-color="#298bd0"/><stop offset="1" stop-color="#0169c2"/></linearGradient><linearGradient id="Degradado_sin_nombre_3-2" x1="115.33" y1="-3.49" x2="115.33" y2="34.67" xlink:href="#Degradado_sin_nombre_3"/><linearGradient id="Degradado_sin_nombre_3-3" x1="101" y1="-4.1" x2="85.72" y2="2.3" xlink:href="#Degradado_sin_nombre_3"/><linearGradient id="Degradado_sin_nombre_3-4" x1="92.65" y1="8.77" x2="99.72" y2="59.36" xlink:href="#Degradado_sin_nombre_3"/><linearGradient id="Degradado_sin_nombre_3-5" x1="94.59" y1="-9.75" x2="94.59" y2="46.94" xlink:href="#Degradado_sin_nombre_3"/><linearGradient id="Degradado_sin_nombre_3-6" x1="113.38" y1="11.4" x2="113.38" y2="37.87" xlink:href="#Degradado_sin_nombre_3"/><linearGradient id="Degradado_sin_nombre_3-7" x1="211.2" y1="-114.71" x2="211.2" y2="-58.02" gradientTransform="translate(-86.5 -46.45) rotate(45)" xlink:href="#Degradado_sin_nombre_3"/><linearGradient id="Degradado_sin_nombre_3-8" x1="229.95" y1="-108.45" x2="229.95" y2="-70.29" gradientTransform="translate(-86.5 -46.45) rotate(45)" xlink:href="#Degradado_sin_nombre_3"/><linearGradient id="Degradado_sin_nombre_3-9" x1="215.62" y1="-109.05" x2="200.34" y2="-102.65" gradientTransform="translate(-86.5 -46.45) rotate(45)" xlink:href="#Degradado_sin_nombre_3"/><linearGradient id="Degradado_sin_nombre_3-10" x1="207.27" y1="-96.19" x2="214.34" y2="-45.6" gradientTransform="translate(-86.5 -46.45) rotate(45)" xlink:href="#Degradado_sin_nombre_3"/><linearGradient id="Degradado_sin_nombre_3-11" x1="209.21" y1="-114.71" x2="209.21" y2="-58.02" gradientTransform="translate(-86.5 -46.45) rotate(45)" xlink:href="#Degradado_sin_nombre_3"/><linearGradient id="Degradado_sin_nombre_3-12" x1="228" y1="-93.56" x2="228" y2="-67.09" gradientTransform="translate(-86.5 -46.45) rotate(45)" xlink:href="#Degradado_sin_nombre_3"/><linearGradient id="Degradado_sin_nombre_3-13" x1="106.24" y1="-229.33" x2="106.24" y2="-172.64" gradientTransform="translate(36.51 -142.4) rotate(135)" xlink:href="#Degradado_sin_nombre_3"/><linearGradient id="Degradado_sin_nombre_3-14" x1="125" y1="-223.07" x2="125" y2="-184.9" gradientTransform="translate(36.51 -142.4) rotate(135)" xlink:href="#Degradado_sin_nombre_3"/><linearGradient id="Degradado_sin_nombre_3-15" x1="110.66" y1="-223.67" x2="95.39" y2="-217.27" gradientTransform="translate(36.51 -142.4) rotate(135)" xlink:href="#Degradado_sin_nombre_3"/><linearGradient id="Degradado_sin_nombre_3-16" x1="102.32" y1="-210.81" x2="109.38" y2="-160.21" gradientTransform="translate(36.51 -142.4) rotate(135)" xlink:href="#Degradado_sin_nombre_3"/><linearGradient id="Degradado_sin_nombre_3-17" x1="104.25" y1="-229.33" x2="104.25" y2="-172.64" gradientTransform="translate(36.51 -142.4) rotate(135)" xlink:href="#Degradado_sin_nombre_3"/><linearGradient id="Degradado_sin_nombre_3-18" x1="123.04" y1="-208.18" x2="123.04" y2="-181.7" gradientTransform="translate(36.51 -142.4) rotate(135)" xlink:href="#Degradado_sin_nombre_3"/><linearGradient id="Degradado_sin_nombre_3-19" x1="-8.38" y1="-124.37" x2="-8.38" y2="-67.68" gradientTransform="translate(132.46 -19.39) rotate(-135)" xlink:href="#Degradado_sin_nombre_3"/><linearGradient id="Degradado_sin_nombre_3-20" x1="10.38" y1="-118.11" x2="10.38" y2="-79.95" gradientTransform="translate(132.46 -19.39) rotate(-135)" xlink:href="#Degradado_sin_nombre_3"/><linearGradient id="Degradado_sin_nombre_3-21" x1="-3.96" y1="-118.71" x2="-19.23" y2="-112.32" gradientTransform="translate(132.46 -19.39) rotate(-135)" xlink:href="#Degradado_sin_nombre_3"/><linearGradient id="Degradado_sin_nombre_3-22" x1="-12.3" y1="-105.85" x2="-5.24" y2="-55.26" gradientTransform="translate(132.46 -19.39) rotate(-135)" xlink:href="#Degradado_sin_nombre_3"/><linearGradient id="Degradado_sin_nombre_3-23" x1="-10.36" y1="-124.37" x2="-10.36" y2="-67.68" gradientTransform="translate(132.46 -19.39) rotate(-135)" xlink:href="#Degradado_sin_nombre_3"/><linearGradient id="Degradado_sin_nombre_3-24" x1="8.42" y1="-103.22" x2="8.42" y2="-76.75" gradientTransform="translate(132.46 -19.39) rotate(-135)" xlink:href="#Degradado_sin_nombre_3"/></defs><g id="Layer_2" data-name="Layer 2"><g id="OBJECTS"><text class="cls-1" transform="translate(0 141.19)">CODER<tspan class="cls-2" x="114.2" y="0">SHER</tspan></text><path class="cls-3" d="M110,40.5h0a5.63,5.63,0,0,1-8,0L84.38,22.89a5.64,5.64,0,0,1,0-8h0a5.63,5.63,0,0,1,8,0L110,32.52A5.63,5.63,0,0,1,110,40.5Z"/><path class="cls-4" d="M114.87,18.88h0a5.65,5.65,0,0,1-8,0L97.65,9.63a5.63,5.63,0,0,1,0-8h0a5.65,5.65,0,0,1,8,0l9.24,9.25A5.63,5.63,0,0,1,114.87,18.88Z"/><path class="cls-5" d="M80.14,10.67h0a5.65,5.65,0,0,1-8,0h0a5.65,5.65,0,0,1,0-8h0a5.65,5.65,0,0,1,8,0h0A5.65,5.65,0,0,1,80.14,10.67Z"/><path class="cls-6" d="M104.49,38.68,86.88,21.07a5.64,5.64,0,0,1-.45-7.46,5.69,5.69,0,0,0-2.05,1.31h0a5.64,5.64,0,0,0,0,8L102,40.5a5.63,5.63,0,0,0,8,0h0a4.5,4.5,0,0,0,.46-.52A5.63,5.63,0,0,1,104.49,38.68Z"/><path class="cls-7" d="M74.52,8.31a5.65,5.65,0,0,1-1-6.62,5.68,5.68,0,0,0-1.36,1h0a5.64,5.64,0,0,0,8,8h0a5.42,5.42,0,0,0,1-1.36A5.65,5.65,0,0,1,74.52,8.31Z"/><path class="cls-8" d="M109.34,16.43,100.1,7.18a5.65,5.65,0,0,1-1-6.56,5.61,5.61,0,0,0-1.41,1h0a5.63,5.63,0,0,0,0,8l9.24,9.25a5.65,5.65,0,0,0,8,0h0a5.59,5.59,0,0,0,1-1.42A5.63,5.63,0,0,1,109.34,16.43Z"/><path class="cls-9" d="M104.82,60.91h0a5.63,5.63,0,0,1,0-8l17.61-17.61a5.63,5.63,0,0,1,8,0h0a5.65,5.65,0,0,1,0,8L112.8,60.91A5.65,5.65,0,0,1,104.82,60.91Z"/><path class="cls-10" d="M126.44,65.8h0a5.64,5.64,0,0,1,0-8l9.25-9.25a5.65,5.65,0,0,1,8,0h0a5.65,5.65,0,0,1,0,8l-9.25,9.24A5.63,5.63,0,0,1,126.44,65.8Z"/><path class="cls-11" d="M134.65,31.07h0a5.65,5.65,0,0,1,0-8h0a5.65,5.65,0,0,1,8,0h0a5.65,5.65,0,0,1,0,8h0A5.63,5.63,0,0,1,134.65,31.07Z"/><path class="cls-12" d="M106.64,55.42l17.61-17.61a5.65,5.65,0,0,1,7.46-.45,5.68,5.68,0,0,0-1.3-2h0a5.63,5.63,0,0,0-8,0L104.82,52.93a5.63,5.63,0,0,0,0,8h0a5.59,5.59,0,0,0,.52.45A5.63,5.63,0,0,1,106.64,55.42Z"/><path class="cls-13" d="M137,25.46a5.64,5.64,0,0,1,6.62-1,5.68,5.68,0,0,0-1-1.36h0a5.64,5.64,0,1,0-8,8h0a5.72,5.72,0,0,0,1.36,1A5.65,5.65,0,0,1,137,25.46Z"/><path class="cls-14" d="M128.89,60.27,138.14,51a5.63,5.63,0,0,1,6.56-1,5.59,5.59,0,0,0-1-1.42h0a5.65,5.65,0,0,0-8,0l-9.25,9.25a5.64,5.64,0,0,0,0,8h0a5.89,5.89,0,0,0,1.42,1A5.66,5.66,0,0,1,128.89,60.27Z"/><path class="cls-15" d="M84.42,55.75h0a5.65,5.65,0,0,1,8,0L110,73.36a5.63,5.63,0,0,1,0,8h0a5.64,5.64,0,0,1-8,0L84.42,63.73A5.63,5.63,0,0,1,84.42,55.75Z"/><path class="cls-16" d="M79.52,77.37h0a5.65,5.65,0,0,1,8,0l9.24,9.25a5.63,5.63,0,0,1,0,8h0a5.65,5.65,0,0,1-8,0l-9.24-9.25A5.63,5.63,0,0,1,79.52,77.37Z"/><path class="cls-17" d="M114.25,85.58h0a5.65,5.65,0,0,1,8,0h0a5.65,5.65,0,0,1,0,8h0a5.65,5.65,0,0,1-8,0h0A5.65,5.65,0,0,1,114.25,85.58Z"/><path class="cls-18" d="M89.9,57.57l17.61,17.61a5.65,5.65,0,0,1,.45,7.46,5.55,5.55,0,0,0,2-1.3h0a5.63,5.63,0,0,0,0-8L92.4,55.75a5.65,5.65,0,0,0-8,0h0a4.5,4.5,0,0,0-.46.52A5.66,5.66,0,0,1,89.9,57.57Z"/><path class="cls-19" d="M119.87,87.94a5.65,5.65,0,0,1,1,6.62,5.42,5.42,0,0,0,1.36-1h0a5.64,5.64,0,1,0-8-8h0a5.42,5.42,0,0,0-1,1.36A5.65,5.65,0,0,1,119.87,87.94Z"/><path class="cls-20" d="M85.05,79.82l9.24,9.25a5.63,5.63,0,0,1,1,6.56,5.42,5.42,0,0,0,1.42-1h0a5.63,5.63,0,0,0,0-8L87.5,77.37a5.65,5.65,0,0,0-8,0h0a5.59,5.59,0,0,0-1,1.42A5.65,5.65,0,0,1,85.05,79.82Z"/><path class="cls-21" d="M89.57,35.35h0a5.63,5.63,0,0,1,0,8L72,60.94a5.65,5.65,0,0,1-8,0h0a5.65,5.65,0,0,1,0-8L81.59,35.35A5.63,5.63,0,0,1,89.57,35.35Z"/><path class="cls-22" d="M68,30.45h0a5.65,5.65,0,0,1,0,8L58.7,47.67a5.63,5.63,0,0,1-8,0h0a5.65,5.65,0,0,1,0-8L60,30.45A5.63,5.63,0,0,1,68,30.45Z"/><path class="cls-23" d="M59.74,65.18h0a5.65,5.65,0,0,1,0,8h0a5.65,5.65,0,0,1-8,0h0a5.65,5.65,0,0,1,0-8h0A5.65,5.65,0,0,1,59.74,65.18Z"/><path class="cls-24" d="M87.75,40.83,70.14,58.44a5.63,5.63,0,0,1-7.46.45,5.8,5.8,0,0,0,1.3,2h0a5.65,5.65,0,0,0,8,0L89.57,43.33a5.63,5.63,0,0,0,0-8h0a4.5,4.5,0,0,0-.52-.46A5.63,5.63,0,0,1,87.75,40.83Z"/><path class="cls-25" d="M57.38,70.8a5.65,5.65,0,0,1-6.62,1,5.42,5.42,0,0,0,1,1.36h0a5.64,5.64,0,0,0,8-8h0a5.42,5.42,0,0,0-1.36-1A5.65,5.65,0,0,1,57.38,70.8Z"/><path class="cls-26" d="M65.5,36l-9.25,9.25a5.66,5.66,0,0,1-6.56,1,5.37,5.37,0,0,0,1,1.41h0a5.63,5.63,0,0,0,8,0L68,38.43a5.65,5.65,0,0,0,0-8h0a5.59,5.59,0,0,0-1.42-1A5.65,5.65,0,0,1,65.5,36Z"/></g></g></svg>