<svg xmlns="http://www.w3.org/2000/svg" xmlns:xlink="http://www.w3.org/1999/xlink" viewBox="0 0 203.36 45.71"><defs><style>.cls-1{font-size:27.07px;fill:#0f1127;font-family:Poppins-Black, Poppins;font-weight:800;}.cls-2{fill:#0169c2;font-family:Poppins-Medium, Poppins;font-weight:500;letter-spacing:0em;}.cls-3{fill:url(#Degradado_sin_nombre_3);}.cls-4{fill:url(#Degradado_sin_nombre_3-2);}.cls-5{fill:url(#Degradado_sin_nombre_3-3);}.cls-6{fill:url(#Degradado_sin_nombre_3-4);}.cls-7{fill:url(#Degradado_sin_nombre_3-5);}.cls-8{fill:url(#Degradado_sin_nombre_3-6);}.cls-9{fill:url(#Degradado_sin_nombre_3-7);}.cls-10{fill:url(#Degradado_sin_nombre_3-8);}.cls-11{fill:url(#Degradado_sin_nombre_3-9);}.cls-12{fill:url(#Degradado_sin_nombre_3-10);}.cls-13{fill:url(#Degradado_sin_nombre_3-11);}.cls-14{fill:url(#Degradado_sin_nombre_3-12);}.cls-15{fill:url(#Degradado_sin_nombre_3-13);}.cls-16{fill:url(#Degradado_sin_nombre_3-14);}.cls-17{fill:url(#Degradado_sin_nombre_3-15);}.cls-18{fill:url(#Degradado_sin_nombre_3-16);}.cls-19{fill:url(#Degradado_sin_nombre_3-17);}.cls-20{fill:url(#Degradado_sin_nombre_3-18);}.cls-21{fill:url(#Degradado_sin_nombre_3-19);}.cls-22{fill:url(#Degradado_sin_nombre_3-20);}.cls-23{fill:url(#Degradado_sin_nombre_3-21);}.cls-24{fill:url(#Degradado_sin_nombre_3-22);}.cls-25{fill:url(#Degradado_sin_nombre_3-23);}.cls-26{fill:url(#Degradado_sin_nombre_3-24);}</style><linearGradient id="Degradado_sin_nombre_3" x1="21.55" y1="-6.75" x2="21.55" y2="14.69" gradientTransform="translate(-2.23 20.53) rotate(-45)" gradientUnits="userSpaceOnUse"><stop offset="0" stop-color="#7ed4ef"/><stop offset="0.23" stop-color="#66bfe6"/><stop offset="0.71" stop-color="#298bd0"/><stop offset="1" stop-color="#0169c2"/></linearGradient><linearGradient id="Degradado_sin_nombre_3-2" x1="28.64" y1="-4.38" x2="28.64" y2="10.05" xlink:href="#Degradado_sin_nombre_3"/><linearGradient id="Degradado_sin_nombre_3-3" x1="23.22" y1="-4.61" x2="17.44" y2="-2.19" xlink:href="#Degradado_sin_nombre_3"/><linearGradient id="Degradado_sin_nombre_3-4" x1="20.06" y1="0.25" x2="22.74" y2="19.39" xlink:href="#Degradado_sin_nombre_3"/><linearGradient id="Degradado_sin_nombre_3-5" x1="20.8" y1="-6.75" x2="20.8" y2="14.69" xlink:href="#Degradado_sin_nombre_3"/><linearGradient id="Degradado_sin_nombre_3-6" x1="27.9" y1="1.25" x2="27.9" y2="11.26" xlink:href="#Degradado_sin_nombre_3"/><linearGradient id="Degradado_sin_nombre_3-7" x1="113.54" y1="-103.9" x2="113.54" y2="-82.46" gradientTransform="translate(-117.86 1.42) rotate(45)" xlink:href="#Degradado_sin_nombre_3"/><linearGradient id="Degradado_sin_nombre_3-8" x1="120.63" y1="-101.53" x2="120.63" y2="-87.1" gradientTransform="translate(-117.86 1.42) rotate(45)" xlink:href="#Degradado_sin_nombre_3"/><linearGradient id="Degradado_sin_nombre_3-9" x1="115.21" y1="-101.76" x2="109.43" y2="-99.34" gradientTransform="translate(-117.86 1.42) rotate(45)" xlink:href="#Degradado_sin_nombre_3"/><linearGradient id="Degradado_sin_nombre_3-10" x1="112.05" y1="-96.9" x2="114.73" y2="-77.76" gradientTransform="translate(-117.86 1.42) rotate(45)" xlink:href="#Degradado_sin_nombre_3"/><linearGradient id="Degradado_sin_nombre_3-11" x1="112.79" y1="-103.9" x2="112.79" y2="-82.46" gradientTransform="translate(-117.86 1.42) rotate(45)" xlink:href="#Degradado_sin_nombre_3"/><linearGradient id="Degradado_sin_nombre_3-12" x1="119.89" y1="-95.9" x2="119.89" y2="-85.89" gradientTransform="translate(-117.86 1.42) rotate(45)" xlink:href="#Degradado_sin_nombre_3"/><linearGradient id="Degradado_sin_nombre_3-13" x1="16.39" y1="-195.89" x2="16.39" y2="-174.45" gradientTransform="translate(-98.75 -114.22) rotate(135)" xlink:href="#Degradado_sin_nombre_3"/><linearGradient id="Degradado_sin_nombre_3-14" x1="23.49" y1="-193.52" x2="23.49" y2="-179.09" gradientTransform="translate(-98.75 -114.22) rotate(135)" xlink:href="#Degradado_sin_nombre_3"/><linearGradient id="Degradado_sin_nombre_3-15" x1="18.06" y1="-193.75" x2="12.29" y2="-191.33" gradientTransform="translate(-98.75 -114.22) rotate(135)" xlink:href="#Degradado_sin_nombre_3"/><linearGradient id="Degradado_sin_nombre_3-16" x1="14.91" y1="-188.89" x2="17.58" y2="-169.75" gradientTransform="translate(-98.75 -114.22) rotate(135)" xlink:href="#Degradado_sin_nombre_3"/><linearGradient id="Degradado_sin_nombre_3-17" x1="15.64" y1="-195.89" x2="15.64" y2="-174.45" gradientTransform="translate(-98.75 -114.22) rotate(135)" xlink:href="#Degradado_sin_nombre_3"/><linearGradient id="Degradado_sin_nombre_3-18" x1="22.75" y1="-187.89" x2="22.75" y2="-177.88" gradientTransform="translate(-98.75 -114.22) rotate(135)" xlink:href="#Degradado_sin_nombre_3"/><linearGradient id="Degradado_sin_nombre_3-19" x1="-75.6" y1="-98.74" x2="-75.6" y2="-77.3" gradientTransform="translate(16.88 -95.11) rotate(-135)" xlink:href="#Degradado_sin_nombre_3"/><linearGradient id="Degradado_sin_nombre_3-20" x1="-68.51" y1="-96.38" x2="-68.51" y2="-81.94" gradientTransform="translate(16.88 -95.11) rotate(-135)" xlink:href="#Degradado_sin_nombre_3"/><linearGradient id="Degradado_sin_nombre_3-21" x1="-73.93" y1="-96.6" x2="-79.71" y2="-94.18" gradientTransform="translate(16.88 -95.11) rotate(-135)" xlink:href="#Degradado_sin_nombre_3"/><linearGradient id="Degradado_sin_nombre_3-22" x1="-77.09" y1="-91.74" x2="-74.41" y2="-72.6" gradientTransform="translate(16.88 -95.11) rotate(-135)" xlink:href="#Degradado_sin_nombre_3"/><linearGradient id="Degradado_sin_nombre_3-23" x1="-76.35" y1="-98.74" x2="-76.35" y2="-77.3" gradientTransform="translate(16.88 -95.11) rotate(-135)" xlink:href="#Degradado_sin_nombre_3"/><linearGradient id="Degradado_sin_nombre_3-24" x1="-69.25" y1="-90.74" x2="-69.25" y2="-80.73" gradientTransform="translate(16.88 -95.11) rotate(-135)" xlink:href="#Degradado_sin_nombre_3"/></defs><g id="Layer_2" data-name="Layer 2"><g id="OBJECTS"><text class="cls-1" transform="translate(41.64 28.74)">CODER<tspan class="cls-2" x="95" y="0">SHER</tspan></text><path class="cls-3" d="M23,15.32h0a2.14,2.14,0,0,1-3,0L13.36,8.66a2.12,2.12,0,0,1,0-3h0a2.14,2.14,0,0,1,3,0L23,12.3A2.14,2.14,0,0,1,23,15.32Z"/><path class="cls-4" d="M24.89,7.14h0a2.14,2.14,0,0,1-3,0l-3.5-3.5a2.13,2.13,0,0,1,0-3h0a2.12,2.12,0,0,1,3,0l3.5,3.49A2.14,2.14,0,0,1,24.89,7.14Z"/><path class="cls-5" d="M11.75,4h0a2.14,2.14,0,0,1-3,0h0a2.14,2.14,0,0,1,0-3h0a2.12,2.12,0,0,1,3,0h0A2.12,2.12,0,0,1,11.75,4Z"/><path class="cls-6" d="M21,14.63,14.3,8a2.14,2.14,0,0,1-.17-2.82,2.11,2.11,0,0,0-.77.49h0a2.12,2.12,0,0,0,0,3L20,15.32a2.14,2.14,0,0,0,3,0h0a1.63,1.63,0,0,0,.17-.2A2.13,2.13,0,0,1,21,14.63Z"/><path class="cls-7" d="M9.63,3.14A2.12,2.12,0,0,1,9.25.64,2.1,2.1,0,0,0,8.73,1h0a2.14,2.14,0,0,0,3,3h0a2.1,2.1,0,0,0,.38-.52A2.12,2.12,0,0,1,9.63,3.14Z"/><path class="cls-8" d="M22.8,6.21,19.3,2.72A2.14,2.14,0,0,1,18.91.24a1.94,1.94,0,0,0-.54.39h0a2.13,2.13,0,0,0,0,3l3.5,3.5a2.14,2.14,0,0,0,3,0h0a2.07,2.07,0,0,0,.39-.54A2.11,2.11,0,0,1,22.8,6.21Z"/><path class="cls-9" d="M21.09,23h0a2.12,2.12,0,0,1,0-3l6.66-6.66a2.12,2.12,0,0,1,3,0h0a2.14,2.14,0,0,1,0,3L24.1,23A2.13,2.13,0,0,1,21.09,23Z"/><path class="cls-10" d="M29.27,24.89h0a2.12,2.12,0,0,1,0-3l3.49-3.5a2.14,2.14,0,0,1,3,0h0a2.12,2.12,0,0,1,0,3l-3.5,3.5A2.13,2.13,0,0,1,29.27,24.89Z"/><path class="cls-11" d="M32.37,11.75h0a2.14,2.14,0,0,1,0-3h0a2.14,2.14,0,0,1,3,0h0a2.14,2.14,0,0,1,0,3h0A2.12,2.12,0,0,1,32.37,11.75Z"/><path class="cls-12" d="M21.78,21l6.66-6.66a2.14,2.14,0,0,1,2.82-.17,2.24,2.24,0,0,0-.49-.77h0a2.12,2.12,0,0,0-3,0L21.09,20a2.12,2.12,0,0,0,0,3h0l.19.17A2.15,2.15,0,0,1,21.78,21Z"/><path class="cls-13" d="M33.26,9.63a2.13,2.13,0,0,1,2.51-.38,2.39,2.39,0,0,0-.38-.52h0a2.14,2.14,0,1,0-3,3h0a2.25,2.25,0,0,0,.51.38A2.15,2.15,0,0,1,33.26,9.63Z"/><path class="cls-14" d="M30.19,22.8l3.5-3.5a2.14,2.14,0,0,1,2.48-.39,2.46,2.46,0,0,0-.39-.54h0a2.14,2.14,0,0,0-3,0l-3.49,3.5a2.12,2.12,0,0,0,0,3h0a2.2,2.2,0,0,0,.53.39A2.14,2.14,0,0,1,30.19,22.8Z"/><path class="cls-15" d="M13.37,21.09h0a2.12,2.12,0,0,1,3,0l6.66,6.66a2.14,2.14,0,0,1,0,3h0a2.14,2.14,0,0,1-3,0L13.37,24.1A2.13,2.13,0,0,1,13.37,21.09Z"/><path class="cls-16" d="M11.52,29.27h0a2.12,2.12,0,0,1,3,0L18,32.76a2.12,2.12,0,0,1,0,3h0a2.12,2.12,0,0,1-3,0l-3.49-3.5A2.11,2.11,0,0,1,11.52,29.27Z"/><path class="cls-17" d="M24.65,32.37h0a2.14,2.14,0,0,1,3,0h0a2.12,2.12,0,0,1,0,3h0a2.14,2.14,0,0,1-3,0h0A2.14,2.14,0,0,1,24.65,32.37Z"/><path class="cls-18" d="M15.44,21.78l6.66,6.66a2.14,2.14,0,0,1,.18,2.82,2.34,2.34,0,0,0,.77-.49h0a2.14,2.14,0,0,0,0-3l-6.66-6.66a2.12,2.12,0,0,0-3,0h0l-.17.19A2.14,2.14,0,0,1,15.44,21.78Z"/><path class="cls-19" d="M26.78,33.26a2.15,2.15,0,0,1,.38,2.51,2.33,2.33,0,0,0,.51-.38h0a2.14,2.14,0,1,0-3-3h0a2.6,2.6,0,0,0-.38.51A2.16,2.16,0,0,1,26.78,33.26Z"/><path class="cls-20" d="M13.61,30.19l3.5,3.5a2.14,2.14,0,0,1,.39,2.48,2.2,2.2,0,0,0,.53-.39h0a2.12,2.12,0,0,0,0-3l-3.49-3.49a2.12,2.12,0,0,0-3,0h0a2.2,2.2,0,0,0-.39.53A2.14,2.14,0,0,1,13.61,30.19Z"/><path class="cls-21" d="M15.32,13.37h0a2.14,2.14,0,0,1,0,3L8.66,23.05a2.14,2.14,0,0,1-3,0h0a2.14,2.14,0,0,1,0-3l6.66-6.66A2.14,2.14,0,0,1,15.32,13.37Z"/><path class="cls-22" d="M7.14,11.52h0a2.14,2.14,0,0,1,0,3L3.64,18a2.11,2.11,0,0,1-3,0h0a2.12,2.12,0,0,1,0-3l3.49-3.49A2.12,2.12,0,0,1,7.14,11.52Z"/><path class="cls-23" d="M4,24.65H4a2.14,2.14,0,0,1,0,3H4a2.12,2.12,0,0,1-3,0H1a2.12,2.12,0,0,1,0-3H1A2.14,2.14,0,0,1,4,24.65Z"/><path class="cls-24" d="M14.63,15.44,8,22.1a2.14,2.14,0,0,1-2.82.18,2.19,2.19,0,0,0,.49.77h0a2.14,2.14,0,0,0,3,0l6.66-6.66a2.14,2.14,0,0,0,0-3h0l-.2-.17A2.11,2.11,0,0,1,14.63,15.44Z"/><path class="cls-25" d="M3.14,26.78a2.13,2.13,0,0,1-2.5.38,2.05,2.05,0,0,0,.38.51H1a2.14,2.14,0,0,0,3-3H4a2.39,2.39,0,0,0-.52-.38A2.13,2.13,0,0,1,3.14,26.78Z"/><path class="cls-26" d="M6.21,13.61l-3.49,3.5a2.14,2.14,0,0,1-2.48.39A1.77,1.77,0,0,0,.63,18h0a2.11,2.11,0,0,0,3,0l3.5-3.49a2.14,2.14,0,0,0,0-3h0a2.07,2.07,0,0,0-.54-.39A2.11,2.11,0,0,1,6.21,13.61Z"/></g></g></svg>