<svg xmlns="http://www.w3.org/2000/svg" viewBox="0 0 203.63 46.4"><defs><style>.cls-1{font-size:27.07px;font-family:Poppins-Black, Poppins;font-weight:800;}.cls-1,.cls-3{fill:#fff;}.cls-2{font-family:Poppins-Medium, Poppins;font-weight:500;}</style></defs><g id="Layer_2" data-name="Layer 2"><g id="OBJECTS"><text class="cls-1" transform="translate(41.91 29.43)">CODER<tspan class="cls-2" x="95" y="0">SHER</tspan></text><path class="cls-3" d="M8.14,2.93A2.16,2.16,0,0,0,8.73,4h0A2.14,2.14,0,0,0,11,4.5,2.2,2.2,0,0,0,11.75,4h0a2.25,2.25,0,0,0,.24-.3l.06-.1.08-.11h0A2.11,2.11,0,0,0,9.24.65v0L9.13.7,9,.77a1.76,1.76,0,0,0-.3.24,2,2,0,0,0-.47.71,2.19,2.19,0,0,0-.16.8A2.85,2.85,0,0,0,8.14,2.93Z"/><path class="cls-3" d="M13.35,8.65,20,15.31a2.12,2.12,0,0,0,3,0l.17-.19h0A2.13,2.13,0,0,0,23,12.3L16.37,5.63a2.15,2.15,0,0,0-2.25-.48h0l-.09,0-.31.16,0,0a2.34,2.34,0,0,0-.31.24,2.13,2.13,0,0,0-.62,1.51,2.24,2.24,0,0,0,.15.81A2.27,2.27,0,0,0,13.35,8.65Z"/><path class="cls-3" d="M21.87,7.13a2.1,2.1,0,0,0,1.5.63,2.05,2.05,0,0,0,.81-.16,2,2,0,0,0,.7-.47h0a1.42,1.42,0,0,0,.25-.3.41.41,0,0,0,.07-.11l.07-.12h0a2.1,2.1,0,0,0-.38-2.48L21.39.62A2.14,2.14,0,0,0,18.9.24h0L18.78.3l-.11.07a1.42,1.42,0,0,0-.3.25h0a2.16,2.16,0,0,0-.59,1.1,2.15,2.15,0,0,0,.59,1.92Z"/><path class="cls-3" d="M36.15,18.9h0l-.08-.12L36,18.67a1.76,1.76,0,0,0-.24-.3,2.12,2.12,0,0,0-3,0l-3.5,3.5a2.11,2.11,0,0,0,0,3h0a1.73,1.73,0,0,0,.3.25l.11.07.13.07h0a2.12,2.12,0,0,0,2.49-.38l3.5-3.49A2.13,2.13,0,0,0,36.15,18.9Z"/><path class="cls-3" d="M20.49,21.93a2.16,2.16,0,0,0,.59,1.1h0l.2.17h0A2.14,2.14,0,0,0,24.1,23l6.66-6.66a2.13,2.13,0,0,0,.49-2.25h0v0l0-.09A1.82,1.82,0,0,0,31,13.7l0,0a3.76,3.76,0,0,0-.25-.31h0a2.07,2.07,0,0,0-1.1-.58,2.13,2.13,0,0,0-1.92.58L21.08,20A2.15,2.15,0,0,0,20.49,21.93Z"/><path class="cls-3" d="M32.36,11.75h0a2.34,2.34,0,0,0,.31.24l.09.06.12.08v0a2.13,2.13,0,0,0,2.51-.36h0a2.13,2.13,0,0,0,.37-2.51h0l-.07-.11L35.63,9a1.42,1.42,0,0,0-.25-.3h0a2.14,2.14,0,0,0-3,3Z"/><path class="cls-3" d="M27.67,32.36a2.14,2.14,0,0,0-2.32-.46,2.23,2.23,0,0,0-.7.46h0a1.79,1.79,0,0,0-.25.31l-.06.09-.07.12h0a2.13,2.13,0,0,0,2.88,2.88h0l.12-.07.09-.06a1.79,1.79,0,0,0,.31-.25h0a2.14,2.14,0,0,0,0-3Z"/><path class="cls-3" d="M23,27.74l-6.66-6.66a2.16,2.16,0,0,0-1.1-.59,2.26,2.26,0,0,0-.82,0,2.2,2.2,0,0,0-1.1.59h0a1.63,1.63,0,0,0-.17.2h0a2.13,2.13,0,0,0,.15,2.83L20,30.76a2.13,2.13,0,0,0,2.25.49h0l.09,0a2.19,2.19,0,0,0,.3-.16l0,0a3.61,3.61,0,0,0,.3-.25h0a2.16,2.16,0,0,0,.59-1.1,2.08,2.08,0,0,0-.12-1.21A2,2,0,0,0,23,27.74Z"/><path class="cls-3" d="M14.53,29.26a2.12,2.12,0,0,0-3,0,3.61,3.61,0,0,0-.25.3l-.06.11a.57.57,0,0,0-.08.13h0a2.15,2.15,0,0,0,.38,2.49l3.5,3.5a2.13,2.13,0,0,0,2.49.37v0l.12-.08a.41.41,0,0,0,.11-.07,2.34,2.34,0,0,0,.31-.24h0a2.14,2.14,0,0,0,0-3Z"/><path class="cls-3" d="M4.62,25.75A2.16,2.16,0,0,0,4,24.65H4a1.73,1.73,0,0,0-.3-.25l-.1-.06-.11-.07h0A2.12,2.12,0,0,0,.65,27.16h0l.07.12.07.09a2.34,2.34,0,0,0,.24.31H1a2.13,2.13,0,0,0,3.64-1.51A2.73,2.73,0,0,0,4.62,25.75Z"/><path class="cls-3" d="M15.78,15.68a2.05,2.05,0,0,0,.16-.81,2,2,0,0,0,0-.41,2.13,2.13,0,0,0-.59-1.1l-.19-.17v0a2.11,2.11,0,0,0-2.82.15L5.64,20a2.13,2.13,0,0,0-.49,2.25h0v0a.36.36,0,0,1,0,.09c0,.1.1.2.16.3l0,0a1.73,1.73,0,0,0,.25.3h0a2.11,2.11,0,0,0,3,0l6.66-6.66A2.11,2.11,0,0,0,15.78,15.68Z"/><path class="cls-3" d="M.3,17.61l.07.11A2.42,2.42,0,0,0,.62,18h0a2.15,2.15,0,0,0,1.1.58,1.84,1.84,0,0,0,.41,0,2,2,0,0,0,.8-.16A2.17,2.17,0,0,0,3.64,18l3.49-3.5a2.12,2.12,0,0,0,0-3h0a2.48,2.48,0,0,0-.3-.25l-.11-.06-.12-.08h0a2.13,2.13,0,0,0-2.48.38L.62,15A2.13,2.13,0,0,0,.24,17.5h0Z"/></g></g></svg>