<svg xmlns="http://www.w3.org/2000/svg" viewBox="0 0 194.39 161.58"><defs><style>.cls-1{font-size:32.53px;font-family:Poppins-Black, Poppins;font-weight:800;}.cls-1,.cls-3{fill:#fff;}.cls-2{font-family:Poppins-Medium, Poppins;font-weight:500;}</style></defs><g id="Layer_2" data-name="Layer 2"><g id="OBJECTS"><text class="cls-1" transform="translate(0 141.18)">CODER<tspan class="cls-2" x="114.2" y="0">SHER</tspan></text><path class="cls-3" d="M70.61,7.74a5.65,5.65,0,0,0,1.55,2.91h0a5.62,5.62,0,0,0,6.11,1.24,5.55,5.55,0,0,0,1.87-1.24h0a4.88,4.88,0,0,0,.65-.79L81,9.6a2,2,0,0,0,.19-.31l0,0a5.6,5.6,0,0,0-7.6-7.6s0,0,0,0l-.31.19L73,2a7.1,7.1,0,0,0-.8.65,5.81,5.81,0,0,0-1.24,1.87,5.75,5.75,0,0,0-.41,2.12A5.49,5.49,0,0,0,70.61,7.74Z"/><path class="cls-3" d="M84.39,22.88,102,40.49a5.65,5.65,0,0,0,8,0,4.6,4.6,0,0,0,.46-.53l0,0a5.62,5.62,0,0,0-.42-7.47L92.36,14.9a5.62,5.62,0,0,0-5.94-1.29h0l-.07,0-.24.1a5.52,5.52,0,0,0-.8.42l-.13.09a5.5,5.5,0,0,0-.8.66A5.6,5.6,0,0,0,83.15,21,5.41,5.41,0,0,0,84.39,22.88Z"/><path class="cls-3" d="M106.89,18.86a5.65,5.65,0,0,0,4,1.65,5.57,5.57,0,0,0,4-1.65h0a5.92,5.92,0,0,0,.65-.79c.07-.1.13-.2.19-.3s.14-.22.19-.33l0,0a5.62,5.62,0,0,0-1-6.58l-9.24-9.24a5.62,5.62,0,0,0-6.58-1s0,0,0,0-.22.14-.33.2l-.3.19a6.71,6.71,0,0,0-.79.64h0A5.5,5.5,0,0,0,96.1,4.55a5.59,5.59,0,0,0,1.55,5.06Z"/><path class="cls-3" d="M144.66,50l0,0a3.45,3.45,0,0,0-.2-.32,3,3,0,0,0-.18-.3,5.42,5.42,0,0,0-.65-.8,5.65,5.65,0,0,0-8,0l-9.25,9.25a5.67,5.67,0,0,0-1.55,5.07,5.72,5.72,0,0,0,1.55,2.91h0a5.42,5.42,0,0,0,.8.65l.3.18.32.2a.06.06,0,0,1,0,0,5.62,5.62,0,0,0,6.57-1l9.25-9.25A5.62,5.62,0,0,0,144.66,50Z"/><path class="cls-3" d="M103.27,58a5.58,5.58,0,0,0,1.55,2.91h0a5.59,5.59,0,0,0,.52.45,0,0,0,0,1,0,0,5.64,5.64,0,0,0,7.47-.42l17.61-17.61a5.63,5.63,0,0,0,1.29-6h0l0-.07a2.56,2.56,0,0,0-.11-.24,5.09,5.09,0,0,0-.42-.8s-.06-.08-.09-.13a5.42,5.42,0,0,0-.65-.8h0a5.64,5.64,0,0,0-8,0L104.82,52.91A5.62,5.62,0,0,0,103.27,58Z"/><path class="cls-3" d="M134.65,31.05h0a6.23,6.23,0,0,0,.8.66l.25.16.31.19s0,0,0,0a5.63,5.63,0,0,0,6.64-1h0a5.61,5.61,0,0,0,1-6.63h0c0-.1-.13-.2-.19-.3l-.16-.26a4.88,4.88,0,0,0-.65-.79h0a5.64,5.64,0,1,0-8,8Z"/><path class="cls-3" d="M122.23,85.56a5.64,5.64,0,0,0-8,0h0a5.42,5.42,0,0,0-.65.8,2.26,2.26,0,0,0-.16.26c-.06.1-.14.2-.19.3h0a5.61,5.61,0,0,0,7.6,7.6s0,0,0,0l.31-.19.25-.17a5.42,5.42,0,0,0,.8-.65h0a5.65,5.65,0,0,0,0-8Z"/><path class="cls-3" d="M110,73.34,92.4,55.73a5.71,5.71,0,0,0-2.92-1.55,5.56,5.56,0,0,0-2.15,0,5.65,5.65,0,0,0-2.91,1.55h0a5.53,5.53,0,0,0-.46.52h0a5.62,5.62,0,0,0,.42,7.47L102,81.32A5.62,5.62,0,0,0,108,82.61h0l.08,0,.24-.1a6,6,0,0,0,.79-.42l.13-.09a6.16,6.16,0,0,0,.81-.66h0a5.66,5.66,0,0,0,1.23-6.11A5.52,5.52,0,0,0,110,73.34Z"/><path class="cls-3" d="M87.5,77.36a5.62,5.62,0,0,0-5.07-1.55,5.5,5.5,0,0,0-2.91,1.55,4.88,4.88,0,0,0-.65.79c-.07.1-.13.2-.19.3s-.14.21-.19.32h0a5.62,5.62,0,0,0,1,6.58l9.24,9.24a5.62,5.62,0,0,0,6.58,1,0,0,0,0,0,0,0c.11,0,.21-.13.32-.19l.3-.19a5.35,5.35,0,0,0,.79-.65h0a5.63,5.63,0,0,0,0-8Z"/><path class="cls-3" d="M61.29,68.08a5.64,5.64,0,0,0-1.55-2.92h0a5.42,5.42,0,0,0-.8-.65l-.25-.16-.31-.19s0,0,0,0a5.6,5.6,0,0,0-7.6,7.6l0,0a3.21,3.21,0,0,0,.19.31l.16.26a5.92,5.92,0,0,0,.65.79h0a5.64,5.64,0,0,0,9.63-4A5.46,5.46,0,0,0,61.29,68.08Z"/><path class="cls-3" d="M90.81,41.44a5.57,5.57,0,0,0,.42-2.12,5.65,5.65,0,0,0-.11-1.08,5.58,5.58,0,0,0-1.55-2.91,5.7,5.7,0,0,0-.52-.46.08.08,0,0,1,0,0,5.63,5.63,0,0,0-7.47.42L64,52.94a5.67,5.67,0,0,0-1.29,6h0l0,.07.11.24a5.57,5.57,0,0,0,.42.8.94.94,0,0,0,.09.12,5,5,0,0,0,.65.81h0a5.65,5.65,0,0,0,8,0L89.57,43.31A5.55,5.55,0,0,0,90.81,41.44Z"/><path class="cls-3" d="M49.89,46.56c.06.1.11.2.18.3a5.42,5.42,0,0,0,.65.8h0a5.72,5.72,0,0,0,2.91,1.55,6.57,6.57,0,0,0,1.08.1,5.62,5.62,0,0,0,4-1.65L68,38.41a5.65,5.65,0,0,0,0-8h0a5.42,5.42,0,0,0-.8-.65l-.3-.18-.32-.2s0,0,0,0a5.6,5.6,0,0,0-6.57,1l-9.25,9.25a5.6,5.6,0,0,0-1,6.57h0C49.75,46.35,49.82,46.45,49.89,46.56Z"/></g></g></svg>